# xmcd
#
# Track frame offsets: 
#        150
#        23924
#        36223
#        51568
#        67575
#        84227
#        103692
#        120746
#        138889
#        156815
#
# Disc length: 2421 seconds
#
# Revision: 0
# Processed by: cddbd v1.5.2PL0 Copyright (c) Steve Scherf et al.
# Submitted via: ExactAudioCopyFreeDBPlugin 1.0
#
DISCID=7a09730a
DTITLE=The Bluesland Horn Band - Radio Waves
DYEAR=2016
DGENRE=Blues
TTITLE0=Cold Heart
TTITLE1=Ragtime Willie
TTITLE2=The Warm Up
TTITLE3=Bad Business
TTITLE4=You Chose Me
TTITLE5=Trying To Get Back
TTITLE6=Roswell Child
TTITLE7=This Time
TTITLE8=Time Goes By
TTITLE9=Dynamite Road
EXTD=
EXTT0=
EXTT1=
EXTT2=
EXTT3=
EXTT4=
EXTT5=
EXTT6=
EXTT7=
EXTT8=
EXTT9=
PLAYORDER=
